<?xml version="1.0" encoding="utf-8"?>
<!-- Generator: Adobe Illustrator 24.0.1, SVG Export Plug-In . SVG Version: 6.00 Build 0)  -->
<svg version="1.1" id="Capa_1" xmlns="http://www.w3.org/2000/svg" xmlns:xlink="http://www.w3.org/1999/xlink" x="0px" y="0px"
	 viewBox="0 0 792 612" style="enable-background:new 0 0 792 612;" xml:space="preserve">
<style type="text/css">
	.st0{fill:#fff;}
</style>
<g>
	<path class="st0" d="M140.02,352.39L79.61,234.5c-1.89-3.73,0.82-8.15,5.01-8.15h131.81l-24.73,40.18l-44.02-0.32
		c-4.22-0.03-6.97,4.44-5.03,8.19l20.94,39.35L140.02,352.39z"/>
	<path class="st0" d="M270.27,237.51L179.25,381.4h-45.3l96.13-153.31c0.18-0.31,0.52-0.49,0.87-0.49h33.78
		C269.82,227.6,272.94,233.18,270.27,237.51z"/>
	<path class="st0" d="M342.25,326.11v-38l0.16-0.56l-44.67-57.49h36.37l23.77,32.85l24.09-32.85h36.22l-44.99,56.93v39.12H342.25z"
		/>
	<path class="st0" d="M454.56,326.11v-96.05h36.53l29.2,62.08l28.24-62.08h34.78v96.19h-30.95v-44.68l-21.38,44.55h-23.93
		l-21.54-46.49v46.49H454.56z"/>
	<path class="st0" d="M628.92,326.11v-96.19h82.48v23.8h-51.53v13.22h45.95v21.99h-45.95v13.36H713v23.8H628.92z"/>
	<g>
		<g>
			<g>
				<path class="st0" d="M346.8,369.04v14.26h-5.57v-33.96h16.76c7.17,0,11.78,3.35,11.78,9.33c0,4.17-2.16,7-6.14,8.08
					c2.03,0.61,5.25,2.22,5.25,8.2v1.54c0,2.54-0.02,5.34,0.4,6.81h-5.75c-0.52-1.48-0.49-3.93-0.49-6.96v-1.13
					c0-4.63-1.78-6.18-7.49-6.18H346.8z M346.8,364.57h9.82c4.99,0,7.39-1.76,7.39-5.52c0-3.46-2.42-5.24-7.24-5.24h-9.98V364.57z"
					/>
				<path class="st0" d="M402.01,367.85h-20.03v10.8h22.14l-0.72,4.66h-27.04v-33.96h26.7V354h-21.09v9.18h20.03V367.85z"/>
				<path class="st0" d="M441.08,373.17c-1.85,5.86-6.22,10.86-16.14,10.86c-11.48,0-17.54-8.01-17.54-17.63
					c0-9.62,6.71-17.76,17.84-17.76c9.95,0,14.69,5.4,15.94,11h-5.74c-1.28-3.17-3.8-6.42-10.27-6.42
					c-7.45,0-11.83,5.54-11.83,12.98c0,7.35,4.28,13.29,11.88,13.29c6.02,0,8.48-2.54,10.2-6.3H441.08z"/>
				<path class="st0" d="M452.51,369.04v14.26h-5.57v-33.96h16.76c7.17,0,11.78,3.35,11.78,9.33c0,4.17-2.16,7-6.14,8.08
					c2.03,0.61,5.25,2.22,5.25,8.2v1.54c0,2.54-0.02,5.34,0.41,6.81h-5.75c-0.52-1.48-0.49-3.93-0.49-6.96v-1.13
					c0-4.63-1.78-6.18-7.49-6.18H452.51z M452.51,364.57h9.82c4.99,0,7.39-1.76,7.39-5.52c0-3.46-2.42-5.24-7.24-5.24h-9.98V364.57z
					"/>
				<path class="st0" d="M487.37,349.35v19.28c0,8.5,4.89,10.8,9.81,10.8c5.8,0,9.36-2.7,9.36-10.8v-19.28h5.62v19.3
					c0,10.87-5.77,15.38-15.17,15.38c-9.27,0-15.24-4.48-15.24-15.05v-19.63H487.37z"/>
				<path class="st0" d="M525.73,349.35v33.96h-5.62v-33.96H525.73z"/>
				<path class="st0" d="M542.5,354.01h-12.71v-4.66h31.04v4.66h-12.69v29.3h-5.64V354.01z"/>
				<path class="st0" d="M597,369.06c0-6.22,0.02-12.34,0.21-15.91h-0.05c-1.68,5.39-6.93,18.29-11.57,30.16h-4.9
					c-3.52-9.85-9.29-24.52-11.14-30.13h-0.05c0.29,3.9,0.5,10.95,0.5,16.69v13.44h-5.15v-33.96h8.08
					c4.37,10.98,9.52,23.77,10.52,27.27h0.05c1.57-4.48,6.76-16.94,10.82-27.27h8.15v33.96H597V369.06z"/>
				<path class="st0" d="M636.43,367.85H616.4v10.8h22.14l-0.72,4.66h-27.04v-33.96h26.7V354H616.4v9.18h20.03V367.85z"/>
				<path class="st0" d="M643.93,383.31v-33.96h6.7c8.09,11.57,17.32,23.46,19.29,27.08h0.1c-0.31-4.21-0.26-9.81-0.26-15.34v-11.74
					h5.22v33.96h-6.31c-4.61-6.37-17.34-24.34-19.67-28.28h-0.1c0.26,4.33,0.26,9.14,0.26,15.16v13.12H643.93z"/>
				<path class="st0" d="M691.71,354.01H679v-4.66h31.04v4.66h-12.69v29.3h-5.64V354.01z"/>
			</g>
		</g>
	</g>
</g>
</svg>
